# xmcd CD database file
#
# Track frame offsets:
#	150
#	22945
#	43743
#	73735
#	93990
#	114253
#	132535
#	157178
#	178733
#	191740
#
# Disc length: 2937 seconds
#
# Revision: 4
# Processed by: cddbd v1.5.2PL0 Copyright (c) Steve Scherf et al.
# Submitted via: CDex 1.70beta3
#
DISCID=8b0b770a
DTITLE=trf - Brand New Tomorrow
DYEAR=1995
DGENRE=JPop
TTITLE0=BRAND NEW TOMORROW
TTITLE1=ALL YOU NEED IS LOVE
TTITLE2=Xmas dance wiz U[HAPPY NEW MIX]
TTITLE3=Happening Here
TTITLE4=Hold the Line
TTITLE5=Silver and Gold dance[TK KC]
TTITLE6=teens
TTITLE7=Winter Groove '96
TTITLE8=R R,Who? "t" KOO-L
TTITLE9=HOT WINTER NIGHT -samuiyorudakara
EXTD=YEAR: 1995
EXTT0=
EXTT1=
EXTT2=
EXTT3=
EXTT4=
EXTT5=
EXTT6=
EXTT7=
EXTT8=
EXTT9=
PLAYORDER=
